<?xml version="1.0" encoding="UTF-8"?>
<svg xmlns="http://www.w3.org/2000/svg" xmlns:xlink="http://www.w3.org/1999/xlink" width="375pt" height="374.999991pt" viewBox="0 0 375 374.999991" version="1.2">
<defs>
<clipPath id="clip1">
  <path d="M 119.550781 97 L 255.300781 97 L 255.300781 296 L 119.550781 296 Z M 119.550781 97 "/>
</clipPath>
</defs>
<g id="surface1">
<path style=" stroke:none;fill-rule:nonzero;fill:rgb(94.509888%,53.329468%,50.588989%);fill-opacity:1;" d="M 185.207031 35.207031 C 182.714844 35.207031 180.222656 35.269531 177.734375 35.390625 C 175.246094 35.511719 172.761719 35.695312 170.28125 35.941406 C 167.800781 36.183594 165.328125 36.488281 162.863281 36.855469 C 160.394531 37.222656 157.941406 37.648438 155.496094 38.132812 C 153.050781 38.621094 150.621094 39.164062 148.203125 39.769531 C 145.785156 40.378906 143.382812 41.042969 141 41.765625 C 138.613281 42.488281 136.25 43.269531 133.902344 44.109375 C 131.554688 44.949219 129.230469 45.847656 126.925781 46.800781 C 124.625 47.753906 122.347656 48.761719 120.09375 49.828125 C 117.839844 50.894531 115.617188 52.015625 113.417969 53.191406 C 111.21875 54.363281 109.050781 55.59375 106.914062 56.875 C 104.777344 58.15625 102.671875 59.488281 100.597656 60.875 C 98.527344 62.257812 96.488281 63.691406 94.488281 65.175781 C 92.484375 66.664062 90.519531 68.195312 88.59375 69.777344 C 86.667969 71.355469 84.78125 72.984375 82.933594 74.660156 C 81.085938 76.332031 79.28125 78.050781 77.519531 79.8125 C 75.757812 81.574219 74.039062 83.378906 72.367188 85.226562 C 70.691406 87.074219 69.066406 88.960938 67.484375 90.886719 C 65.902344 92.8125 64.371094 94.777344 62.886719 96.78125 C 61.398438 98.78125 59.964844 100.820312 58.582031 102.890625 C 57.195312 104.964844 55.863281 107.066406 54.582031 109.207031 C 53.300781 111.34375 52.070312 113.511719 50.898438 115.710938 C 49.722656 117.90625 48.601562 120.132812 47.535156 122.386719 C 46.472656 124.640625 45.460938 126.917969 44.507812 129.21875 C 43.554688 131.523438 42.65625 133.847656 41.816406 136.195312 C 40.976562 138.539062 40.195312 140.90625 39.472656 143.292969 C 38.75 145.675781 38.085938 148.078125 37.480469 150.496094 C 36.875 152.914062 36.328125 155.34375 35.839844 157.789062 C 35.355469 160.234375 34.929688 162.6875 34.5625 165.152344 C 34.199219 167.621094 33.890625 170.09375 33.648438 172.574219 C 33.402344 175.054688 33.21875 177.539062 33.097656 180.027344 C 32.976562 182.515625 32.914062 185.007812 32.914062 187.5 C 32.914062 189.992188 32.976562 192.484375 33.097656 194.972656 C 33.21875 197.460938 33.402344 199.945312 33.648438 202.425781 C 33.890625 204.90625 34.199219 207.378906 34.5625 209.847656 C 34.929688 212.3125 35.355469 214.765625 35.839844 217.210938 C 36.328125 219.65625 36.875 222.085938 37.480469 224.503906 C 38.085938 226.921875 38.75 229.324219 39.472656 231.707031 C 40.195312 234.09375 40.976562 236.460938 41.816406 238.804688 C 42.65625 241.152344 43.554688 243.476562 44.507812 245.78125 C 45.460938 248.082031 46.472656 250.359375 47.535156 252.613281 C 48.601562 254.867188 49.722656 257.09375 50.898438 259.289062 C 52.070312 261.488281 53.300781 263.65625 54.582031 265.792969 C 55.863281 267.933594 57.195312 270.035156 58.582031 272.109375 C 59.964844 274.179688 61.398438 276.21875 62.886719 278.21875 C 64.371094 280.222656 65.902344 282.1875 67.484375 284.113281 C 69.066406 286.039062 70.691406 287.925781 72.367188 289.773438 C 74.039062 291.621094 75.757812 293.425781 77.519531 295.1875 C 79.28125 296.949219 81.085938 298.667969 82.933594 300.339844 C 84.78125 302.015625 86.667969 303.640625 88.59375 305.222656 C 90.519531 306.804688 92.484375 308.335938 94.488281 309.824219 C 96.488281 311.308594 98.527344 312.742188 100.597656 314.125 C 102.671875 315.511719 104.777344 316.84375 106.914062 318.125 C 109.050781 319.40625 111.21875 320.636719 113.417969 321.808594 C 115.617188 322.984375 117.839844 324.105469 120.09375 325.171875 C 122.347656 326.238281 124.625 327.246094 126.925781 328.199219 C 129.230469 329.152344 131.554688 330.050781 133.902344 330.890625 C 136.25 331.730469 138.613281 332.511719 141 333.234375 C 143.382812 333.957031 145.785156 334.621094 148.203125 335.226562 C 150.621094 335.835938 153.050781 336.378906 155.496094 336.867188 C 157.941406 337.351562 160.394531 337.777344 162.863281 338.144531 C 165.328125 338.511719 167.800781 338.816406 170.28125 339.058594 C 172.761719 339.304688 175.246094 339.488281 177.734375 339.609375 C 180.222656 339.730469 182.714844 339.792969 185.207031 339.792969 C 187.699219 339.792969 190.191406 339.730469 192.679688 339.609375 C 195.167969 339.488281 197.65625 339.304688 200.132812 339.058594 C 202.613281 338.816406 205.089844 338.511719 207.554688 338.144531 C 210.019531 337.777344 212.472656 337.351562 214.917969 336.867188 C 217.363281 336.378906 219.792969 335.835938 222.210938 335.226562 C 224.628906 334.621094 227.03125 333.957031 229.414062 333.234375 C 231.800781 332.511719 234.167969 331.730469 236.511719 330.890625 C 238.859375 330.050781 241.183594 329.152344 243.488281 328.199219 C 245.789062 327.246094 248.066406 326.238281 250.320312 325.171875 C 252.574219 324.105469 254.800781 322.984375 256.996094 321.808594 C 259.195312 320.636719 261.363281 319.40625 263.5 318.125 C 265.640625 316.84375 267.746094 315.511719 269.816406 314.125 C 271.890625 312.742188 273.925781 311.308594 275.929688 309.824219 C 277.929688 308.335938 279.894531 306.804688 281.820312 305.222656 C 283.746094 303.640625 285.632812 302.015625 287.480469 300.339844 C 289.328125 298.667969 291.132812 296.949219 292.894531 295.1875 C 294.65625 293.425781 296.375 291.621094 298.046875 289.773438 C 299.722656 287.925781 301.351562 286.039062 302.929688 284.113281 C 304.511719 282.1875 306.046875 280.222656 307.53125 278.21875 C 309.015625 276.21875 310.449219 274.179688 311.835938 272.109375 C 313.21875 270.035156 314.550781 267.933594 315.832031 265.792969 C 317.113281 263.65625 318.34375 261.488281 319.515625 259.289062 C 320.691406 257.09375 321.8125 254.867188 322.878906 252.613281 C 323.945312 250.359375 324.953125 248.082031 325.90625 245.78125 C 326.859375 243.476562 327.757812 241.152344 328.597656 238.804688 C 329.4375 236.460938 330.21875 234.09375 330.941406 231.707031 C 331.664062 229.324219 332.332031 226.921875 332.9375 224.503906 C 333.542969 222.085938 334.085938 219.65625 334.574219 217.210938 C 335.058594 214.765625 335.484375 212.3125 335.851562 209.847656 C 336.21875 207.378906 336.523438 204.90625 336.765625 202.425781 C 337.011719 199.945312 337.195312 197.460938 337.316406 194.972656 C 337.4375 192.484375 337.5 189.992188 337.5 187.5 C 337.5 185.007812 337.4375 182.515625 337.316406 180.027344 C 337.195312 177.539062 337.011719 175.054688 336.765625 172.574219 C 336.523438 170.09375 336.21875 167.621094 335.851562 165.152344 C 335.484375 162.6875 335.058594 160.234375 334.574219 157.789062 C 334.085938 155.34375 333.542969 152.914062 332.9375 150.496094 C 332.332031 148.078125 331.664062 145.675781 330.941406 143.292969 C 330.21875 140.90625 329.4375 138.539062 328.597656 136.195312 C 327.757812 133.847656 326.859375 131.523438 325.90625 129.21875 C 324.953125 126.917969 323.945312 124.640625 322.878906 122.386719 C 321.8125 120.132812 320.691406 117.90625 319.515625 115.710938 C 318.34375 113.511719 317.113281 111.34375 315.832031 109.207031 C 314.550781 107.066406 313.21875 104.964844 311.835938 102.890625 C 310.449219 100.820312 309.015625 98.78125 307.53125 96.78125 C 306.046875 94.777344 304.511719 92.8125 302.929688 90.886719 C 301.351562 88.960938 299.722656 87.074219 298.046875 85.226562 C 296.375 83.378906 294.65625 81.574219 292.894531 79.8125 C 291.132812 78.050781 289.328125 76.332031 287.480469 74.660156 C 285.632812 72.984375 283.746094 71.355469 281.820312 69.777344 C 279.894531 68.195312 277.929688 66.664062 275.929688 65.175781 C 273.925781 63.691406 271.890625 62.257812 269.816406 60.875 C 267.746094 59.488281 265.640625 58.15625 263.5 56.875 C 261.363281 55.59375 259.195312 54.363281 256.996094 53.191406 C 254.800781 52.015625 252.574219 50.894531 250.320312 49.828125 C 248.066406 48.761719 245.789062 47.753906 243.488281 46.800781 C 241.183594 45.847656 238.859375 44.949219 236.511719 44.109375 C 234.167969 43.269531 231.800781 42.488281 229.414062 41.765625 C 227.03125 41.042969 224.628906 40.378906 222.210938 39.769531 C 219.792969 39.164062 217.363281 38.621094 214.917969 38.132812 C 212.472656 37.648438 210.019531 37.222656 207.554688 36.855469 C 205.089844 36.488281 202.613281 36.183594 200.132812 35.941406 C 197.65625 35.695312 195.167969 35.511719 192.679688 35.390625 C 190.191406 35.269531 187.699219 35.207031 185.207031 35.207031 Z M 185.207031 35.207031 "/>
<g clip-path="url(#clip1)" clip-rule="nonzero">
<path style=" stroke:none;fill-rule:nonzero;fill:rgb(100%,100%,100%);fill-opacity:1;" d="M 207.085938 225.117188 C 200.320312 227.035156 193.59375 221.953125 193.59375 214.945312 L 193.59375 107.089844 C 193.59375 101.066406 199.222656 96.5625 205.109375 97.949219 C 234.144531 104.757812 255.824219 130.773438 255.824219 161.738281 C 255.824219 191.714844 235.515625 217.046875 207.085938 225.117188 Z M 181.722656 230.835938 L 181.722656 107.089844 C 181.722656 101.066406 176.09375 96.5625 170.203125 97.949219 C 141.167969 104.753906 119.492188 130.773438 119.492188 161.738281 L 119.492188 287.785156 C 119.492188 292.511719 123.824219 296.070312 128.488281 295.167969 C 158.78125 289.308594 181.722656 262.6875 181.722656 230.835938 Z M 181.722656 230.835938 "/>
</g>
</g>
</svg>
